<?xml version="1.0" encoding="utf-8"?>
<svg version="1.1" xmlns:xlink="http://www.w3.org/1999/xlink" width="12px" height="12px" viewBox="372 642  12 12" xmlns="http://www.w3.org/2000/svg">
  <path d="M 378 642  C 381.36 642  384 644.64  384 648  C 384 651.36  381.36 654  378 654  C 374.64 654  372 651.36  372 648  C 372 644.64  374.64 642  378 642  Z " fill-rule="nonzero" fill="#ffffff" stroke="none" />
  <path d="M 378 642.5  C 381.08 642.5  383.5 644.92  383.5 648  C 383.5 651.08  381.08 653.5  378 653.5  C 374.92 653.5  372.5 651.08  372.5 648  C 372.5 644.92  374.92 642.5  378 642.5  Z " stroke-width="1" stroke="#797979" fill="none" />
  <path d="M 378 651  C 376.32 651  375 649.68  375 648  C 375 646.32  376.32 645  378 645  C 379.68 645  381 646.32  381 648  C 381 649.68  379.68 651  378 651  " fill-rule="nonzero" fill="#797979" stroke="none" />
</svg>