<?xml version="1.0" encoding="utf-8"?>
<svg version="1.1" xmlns:xlink="http://www.w3.org/1999/xlink" width="12px" height="12px" viewBox="172 597  12 12" xmlns="http://www.w3.org/2000/svg">
  <path d="M 178 597  C 181.36 597  184 599.64  184 603  C 184 606.36  181.36 609  178 609  C 174.64 609  172 606.36  172 603  C 172 599.64  174.64 597  178 597  Z " fill-rule="nonzero" fill="#ffffff" stroke="none" />
  <path d="M 178 597.5  C 181.08 597.5  183.5 599.92  183.5 603  C 183.5 606.08  181.08 608.5  178 608.5  C 174.92 608.5  172.5 606.08  172.5 603  C 172.5 599.92  174.92 597.5  178 597.5  Z " stroke-width="1" stroke="#797979" fill="none" />
  <path d="M 178 606  C 176.32 606  175 604.68  175 603  C 175 601.32  176.32 600  178 600  C 179.68 600  181 601.32  181 603  C 181 604.68  179.68 606  178 606  " fill-rule="nonzero" fill="#797979" stroke="none" />
</svg>