<?xml version="1.0" encoding="utf-8"?>
<svg version="1.1" xmlns:xlink="http://www.w3.org/1999/xlink" width="12px" height="12px" viewBox="171 570  12 12" xmlns="http://www.w3.org/2000/svg">
  <path d="M 177 570  C 180.36 570  183 572.64  183 576  C 183 579.36  180.36 582  177 582  C 173.64 582  171 579.36  171 576  C 171 572.64  173.64 570  177 570  Z " fill-rule="nonzero" fill="#ffffff" stroke="none" />
  <path d="M 177 570.5  C 180.08 570.5  182.5 572.92  182.5 576  C 182.5 579.08  180.08 581.5  177 581.5  C 173.92 581.5  171.5 579.08  171.5 576  C 171.5 572.92  173.92 570.5  177 570.5  Z " stroke-width="1" stroke="#797979" fill="none" />
  <path d="M 177 579  C 175.32 579  174 577.68  174 576  C 174 574.32  175.32 573  177 573  C 178.68 573  180 574.32  180 576  C 180 577.68  178.68 579  177 579  " fill-rule="nonzero" fill="#797979" stroke="none" />
</svg>