<?xml version="1.0" encoding="utf-8"?>
<svg version="1.1" xmlns:xlink="http://www.w3.org/1999/xlink" width="12px" height="12px" viewBox="271 570  12 12" xmlns="http://www.w3.org/2000/svg">
  <path d="M 277 570  C 280.36 570  283 572.64  283 576  C 283 579.36  280.36 582  277 582  C 273.64 582  271 579.36  271 576  C 271 572.64  273.64 570  277 570  Z " fill-rule="nonzero" fill="#ffffff" stroke="none" />
  <path d="M 277 570.5  C 280.08 570.5  282.5 572.92  282.5 576  C 282.5 579.08  280.08 581.5  277 581.5  C 273.92 581.5  271.5 579.08  271.5 576  C 271.5 572.92  273.92 570.5  277 570.5  Z " stroke-width="1" stroke="#797979" fill="none" />
  <path d="M 277 579  C 275.32 579  274 577.68  274 576  C 274 574.32  275.32 573  277 573  C 278.68 573  280 574.32  280 576  C 280 577.68  278.68 579  277 579  " fill-rule="nonzero" fill="#797979" stroke="none" />
</svg>