<?xml version="1.0" encoding="utf-8"?>
<svg version="1.1" xmlns:xlink="http://www.w3.org/1999/xlink" width="12px" height="12px" viewBox="372 645  12 12" xmlns="http://www.w3.org/2000/svg">
  <path d="M 378 645  C 381.36 645  384 647.64  384 651  C 384 654.36  381.36 657  378 657  C 374.64 657  372 654.36  372 651  C 372 647.64  374.64 645  378 645  Z " fill-rule="nonzero" fill="#ffffff" stroke="none" />
  <path d="M 378 645.5  C 381.08 645.5  383.5 647.92  383.5 651  C 383.5 654.08  381.08 656.5  378 656.5  C 374.92 656.5  372.5 654.08  372.5 651  C 372.5 647.92  374.92 645.5  378 645.5  Z " stroke-width="1" stroke="#797979" fill="none" />
  <path d="M 378 654  C 376.32 654  375 652.68  375 651  C 375 649.32  376.32 648  378 648  C 379.68 648  381 649.32  381 651  C 381 652.68  379.68 654  378 654  " fill-rule="nonzero" fill="#797979" stroke="none" />
</svg>