<?xml version="1.0" encoding="utf-8"?>
<svg version="1.1" xmlns:xlink="http://www.w3.org/1999/xlink" width="12px" height="12px" viewBox="200 79  12 12" xmlns="http://www.w3.org/2000/svg">
  <path d="M 206 79  C 209.36 79  212 81.64  212 85  C 212 88.36  209.36 91  206 91  C 202.64 91  200 88.36  200 85  C 200 81.64  202.64 79  206 79  Z " fill-rule="nonzero" fill="#ffffff" stroke="none" />
  <path d="M 206 79.5  C 209.08 79.5  211.5 81.92  211.5 85  C 211.5 88.08  209.08 90.5  206 90.5  C 202.92 90.5  200.5 88.08  200.5 85  C 200.5 81.92  202.92 79.5  206 79.5  Z " stroke-width="1" stroke="#797979" fill="none" />
  <path d="M 206 88  C 204.32 88  203 86.68  203 85  C 203 83.32  204.32 82  206 82  C 207.68 82  209 83.32  209 85  C 209 86.68  207.68 88  206 88  " fill-rule="nonzero" fill="#797979" stroke="none" />
</svg>