<?xml version="1.0" encoding="utf-8"?>
<svg version="1.1" xmlns:xlink="http://www.w3.org/1999/xlink" width="12px" height="12px" viewBox="172 701  12 12" xmlns="http://www.w3.org/2000/svg">
  <path d="M 178 701  C 181.36 701  184 703.64  184 707  C 184 710.36  181.36 713  178 713  C 174.64 713  172 710.36  172 707  C 172 703.64  174.64 701  178 701  Z " fill-rule="nonzero" fill="#ffffff" stroke="none" />
  <path d="M 178 701.5  C 181.08 701.5  183.5 703.92  183.5 707  C 183.5 710.08  181.08 712.5  178 712.5  C 174.92 712.5  172.5 710.08  172.5 707  C 172.5 703.92  174.92 701.5  178 701.5  Z " stroke-width="1" stroke="#797979" fill="none" />
  <path d="M 178 710  C 176.32 710  175 708.68  175 707  C 175 705.32  176.32 704  178 704  C 179.68 704  181 705.32  181 707  C 181 708.68  179.68 710  178 710  " fill-rule="nonzero" fill="#797979" stroke="none" />
</svg>