<?xml version="1.0" encoding="utf-8"?>
<svg version="1.1" xmlns:xlink="http://www.w3.org/1999/xlink" width="12px" height="12px" viewBox="172 645  12 12" xmlns="http://www.w3.org/2000/svg">
  <path d="M 178 645  C 181.36 645  184 647.64  184 651  C 184 654.36  181.36 657  178 657  C 174.64 657  172 654.36  172 651  C 172 647.64  174.64 645  178 645  Z " fill-rule="nonzero" fill="#ffffff" stroke="none" />
  <path d="M 178 645.5  C 181.08 645.5  183.5 647.92  183.5 651  C 183.5 654.08  181.08 656.5  178 656.5  C 174.92 656.5  172.5 654.08  172.5 651  C 172.5 647.92  174.92 645.5  178 645.5  Z " stroke-width="1" stroke="#797979" fill="none" />
  <path d="M 178 654  C 176.32 654  175 652.68  175 651  C 175 649.32  176.32 648  178 648  C 179.68 648  181 649.32  181 651  C 181 652.68  179.68 654  178 654  " fill-rule="nonzero" fill="#797979" stroke="none" />
</svg>