<?xml version="1.0" encoding="utf-8"?>
<svg version="1.1" xmlns:xlink="http://www.w3.org/1999/xlink" width="12px" height="12px" viewBox="272 645  12 12" xmlns="http://www.w3.org/2000/svg">
  <path d="M 278 645  C 281.36 645  284 647.64  284 651  C 284 654.36  281.36 657  278 657  C 274.64 657  272 654.36  272 651  C 272 647.64  274.64 645  278 645  Z " fill-rule="nonzero" fill="#ffffff" stroke="none" />
  <path d="M 278 645.5  C 281.08 645.5  283.5 647.92  283.5 651  C 283.5 654.08  281.08 656.5  278 656.5  C 274.92 656.5  272.5 654.08  272.5 651  C 272.5 647.92  274.92 645.5  278 645.5  Z " stroke-width="1" stroke="#797979" fill="none" />
  <path d="M 278 654  C 276.32 654  275 652.68  275 651  C 275 649.32  276.32 648  278 648  C 279.68 648  281 649.32  281 651  C 281 652.68  279.68 654  278 654  " fill-rule="nonzero" fill="#797979" stroke="none" />
</svg>