<?xml version="1.0" encoding="utf-8"?>
<svg version="1.1" xmlns:xlink="http://www.w3.org/1999/xlink" width="12px" height="12px" viewBox="100 79  12 12" xmlns="http://www.w3.org/2000/svg">
  <path d="M 106 79  C 109.36 79  112 81.64  112 85  C 112 88.36  109.36 91  106 91  C 102.64 91  100 88.36  100 85  C 100 81.64  102.64 79  106 79  Z " fill-rule="nonzero" fill="#ffffff" stroke="none" />
  <path d="M 106 79.5  C 109.08 79.5  111.5 81.92  111.5 85  C 111.5 88.08  109.08 90.5  106 90.5  C 102.92 90.5  100.5 88.08  100.5 85  C 100.5 81.92  102.92 79.5  106 79.5  Z " stroke-width="1" stroke="#797979" fill="none" />
  <path d="M 106 88  C 104.32 88  103 86.68  103 85  C 103 83.32  104.32 82  106 82  C 107.68 82  109 83.32  109 85  C 109 86.68  107.68 88  106 88  " fill-rule="nonzero" fill="#797979" stroke="none" />
</svg>