<?xml version="1.0" encoding="utf-8"?>
<svg version="1.1" xmlns:xlink="http://www.w3.org/1999/xlink" width="12px" height="12px" viewBox="272 642  12 12" xmlns="http://www.w3.org/2000/svg">
  <path d="M 278 642  C 281.36 642  284 644.64  284 648  C 284 651.36  281.36 654  278 654  C 274.64 654  272 651.36  272 648  C 272 644.64  274.64 642  278 642  Z " fill-rule="nonzero" fill="#ffffff" stroke="none" />
  <path d="M 278 642.5  C 281.08 642.5  283.5 644.92  283.5 648  C 283.5 651.08  281.08 653.5  278 653.5  C 274.92 653.5  272.5 651.08  272.5 648  C 272.5 644.92  274.92 642.5  278 642.5  Z " stroke-width="1" stroke="#797979" fill="none" />
  <path d="M 278 651  C 276.32 651  275 649.68  275 648  C 275 646.32  276.32 645  278 645  C 279.68 645  281 646.32  281 648  C 281 649.68  279.68 651  278 651  " fill-rule="nonzero" fill="#797979" stroke="none" />
</svg>