<?xml version="1.0" encoding="utf-8"?>
<svg version="1.1" xmlns:xlink="http://www.w3.org/1999/xlink" width="12px" height="12px" viewBox="172 594  12 12" xmlns="http://www.w3.org/2000/svg">
  <path d="M 178 594  C 181.36 594  184 596.64  184 600  C 184 603.36  181.36 606  178 606  C 174.64 606  172 603.36  172 600  C 172 596.64  174.64 594  178 594  Z " fill-rule="nonzero" fill="#ffffff" stroke="none" />
  <path d="M 178 594.5  C 181.08 594.5  183.5 596.92  183.5 600  C 183.5 603.08  181.08 605.5  178 605.5  C 174.92 605.5  172.5 603.08  172.5 600  C 172.5 596.92  174.92 594.5  178 594.5  Z " stroke-width="1" stroke="#797979" fill="none" />
  <path d="M 178 603  C 176.32 603  175 601.68  175 600  C 175 598.32  176.32 597  178 597  C 179.68 597  181 598.32  181 600  C 181 601.68  179.68 603  178 603  " fill-rule="nonzero" fill="#797979" stroke="none" />
</svg>