<?xml version="1.0" encoding="utf-8"?>
<svg version="1.1" xmlns:xlink="http://www.w3.org/1999/xlink" width="12px" height="12px" viewBox="272 594  12 12" xmlns="http://www.w3.org/2000/svg">
  <path d="M 278 594  C 281.36 594  284 596.64  284 600  C 284 603.36  281.36 606  278 606  C 274.64 606  272 603.36  272 600  C 272 596.64  274.64 594  278 594  Z " fill-rule="nonzero" fill="#ffffff" stroke="none" />
  <path d="M 278 594.5  C 281.08 594.5  283.5 596.92  283.5 600  C 283.5 603.08  281.08 605.5  278 605.5  C 274.92 605.5  272.5 603.08  272.5 600  C 272.5 596.92  274.92 594.5  278 594.5  Z " stroke-width="1" stroke="#797979" fill="none" />
  <path d="M 278 603  C 276.32 603  275 601.68  275 600  C 275 598.32  276.32 597  278 597  C 279.68 597  281 598.32  281 600  C 281 601.68  279.68 603  278 603  " fill-rule="nonzero" fill="#797979" stroke="none" />
</svg>