<?xml version="1.0" encoding="utf-8"?>
<svg version="1.1" xmlns:xlink="http://www.w3.org/1999/xlink" width="12px" height="12px" viewBox="172 692  12 12" xmlns="http://www.w3.org/2000/svg">
  <path d="M 178 692  C 181.36 692  184 694.64  184 698  C 184 701.36  181.36 704  178 704  C 174.64 704  172 701.36  172 698  C 172 694.64  174.64 692  178 692  Z " fill-rule="nonzero" fill="#ffffff" stroke="none" />
  <path d="M 178 692.5  C 181.08 692.5  183.5 694.92  183.5 698  C 183.5 701.08  181.08 703.5  178 703.5  C 174.92 703.5  172.5 701.08  172.5 698  C 172.5 694.92  174.92 692.5  178 692.5  Z " stroke-width="1" stroke="#797979" fill="none" />
  <path d="M 178 701  C 176.32 701  175 699.68  175 698  C 175 696.32  176.32 695  178 695  C 179.68 695  181 696.32  181 698  C 181 699.68  179.68 701  178 701  " fill-rule="nonzero" fill="#797979" stroke="none" />
</svg>