<?xml version="1.0" encoding="utf-8"?>
<svg version="1.1" xmlns:xlink="http://www.w3.org/1999/xlink" width="12px" height="12px" viewBox="272 692  12 12" xmlns="http://www.w3.org/2000/svg">
  <path d="M 278 692  C 281.36 692  284 694.64  284 698  C 284 701.36  281.36 704  278 704  C 274.64 704  272 701.36  272 698  C 272 694.64  274.64 692  278 692  Z " fill-rule="nonzero" fill="#ffffff" stroke="none" />
  <path d="M 278 692.5  C 281.08 692.5  283.5 694.92  283.5 698  C 283.5 701.08  281.08 703.5  278 703.5  C 274.92 703.5  272.5 701.08  272.5 698  C 272.5 694.92  274.92 692.5  278 692.5  Z " stroke-width="1" stroke="#797979" fill="none" />
  <path d="M 278 701  C 276.32 701  275 699.68  275 698  C 275 696.32  276.32 695  278 695  C 279.68 695  281 696.32  281 698  C 281 699.68  279.68 701  278 701  " fill-rule="nonzero" fill="#797979" stroke="none" />
</svg>