<?xml version="1.0" encoding="utf-8"?>
<svg version="1.1" xmlns:xlink="http://www.w3.org/1999/xlink" width="12px" height="12px" viewBox="172 642  12 12" xmlns="http://www.w3.org/2000/svg">
  <path d="M 178 642  C 181.36 642  184 644.64  184 648  C 184 651.36  181.36 654  178 654  C 174.64 654  172 651.36  172 648  C 172 644.64  174.64 642  178 642  Z " fill-rule="nonzero" fill="#ffffff" stroke="none" />
  <path d="M 178 642.5  C 181.08 642.5  183.5 644.92  183.5 648  C 183.5 651.08  181.08 653.5  178 653.5  C 174.92 653.5  172.5 651.08  172.5 648  C 172.5 644.92  174.92 642.5  178 642.5  Z " stroke-width="1" stroke="#797979" fill="none" />
  <path d="M 178 651  C 176.32 651  175 649.68  175 648  C 175 646.32  176.32 645  178 645  C 179.68 645  181 646.32  181 648  C 181 649.68  179.68 651  178 651  " fill-rule="nonzero" fill="#797979" stroke="none" />
</svg>