<?xml version="1.0" encoding="utf-8"?>
<svg version="1.1" xmlns:xlink="http://www.w3.org/1999/xlink" width="12px" height="12px" viewBox="272 597  12 12" xmlns="http://www.w3.org/2000/svg">
  <path d="M 278 597  C 281.36 597  284 599.64  284 603  C 284 606.36  281.36 609  278 609  C 274.64 609  272 606.36  272 603  C 272 599.64  274.64 597  278 597  Z " fill-rule="nonzero" fill="#ffffff" stroke="none" />
  <path d="M 278 597.5  C 281.08 597.5  283.5 599.92  283.5 603  C 283.5 606.08  281.08 608.5  278 608.5  C 274.92 608.5  272.5 606.08  272.5 603  C 272.5 599.92  274.92 597.5  278 597.5  Z " stroke-width="1" stroke="#797979" fill="none" />
  <path d="M 278 606  C 276.32 606  275 604.68  275 603  C 275 601.32  276.32 600  278 600  C 279.68 600  281 601.32  281 603  C 281 604.68  279.68 606  278 606  " fill-rule="nonzero" fill="#797979" stroke="none" />
</svg>