<?xml version="1.0" encoding="utf-8"?>
<svg version="1.1" xmlns:xlink="http://www.w3.org/1999/xlink" width="12px" height="12px" viewBox="172 643  12 12" xmlns="http://www.w3.org/2000/svg">
  <path d="M 178 643  C 181.36 643  184 645.64  184 649  C 184 652.36  181.36 655  178 655  C 174.64 655  172 652.36  172 649  C 172 645.64  174.64 643  178 643  Z " fill-rule="nonzero" fill="#ffffff" stroke="none" />
  <path d="M 178 643.5  C 181.08 643.5  183.5 645.92  183.5 649  C 183.5 652.08  181.08 654.5  178 654.5  C 174.92 654.5  172.5 652.08  172.5 649  C 172.5 645.92  174.92 643.5  178 643.5  Z " stroke-width="1" stroke="#797979" fill="none" />
  <path d="M 178 652  C 176.32 652  175 650.68  175 649  C 175 647.32  176.32 646  178 646  C 179.68 646  181 647.32  181 649  C 181 650.68  179.68 652  178 652  " fill-rule="nonzero" fill="#797979" stroke="none" />
</svg>