<?xml version="1.0" encoding="utf-8"?>
<svg version="1.1" xmlns:xlink="http://www.w3.org/1999/xlink" width="12px" height="12px" viewBox="171 618  12 12" xmlns="http://www.w3.org/2000/svg">
  <path d="M 177 618  C 180.36 618  183 620.64  183 624  C 183 627.36  180.36 630  177 630  C 173.64 630  171 627.36  171 624  C 171 620.64  173.64 618  177 618  Z " fill-rule="nonzero" fill="#ffffff" stroke="none" />
  <path d="M 177 618.5  C 180.08 618.5  182.5 620.92  182.5 624  C 182.5 627.08  180.08 629.5  177 629.5  C 173.92 629.5  171.5 627.08  171.5 624  C 171.5 620.92  173.92 618.5  177 618.5  Z " stroke-width="1" stroke="#797979" fill="none" />
  <path d="M 177 627  C 175.32 627  174 625.68  174 624  C 174 622.32  175.32 621  177 621  C 178.68 621  180 622.32  180 624  C 180 625.68  178.68 627  177 627  " fill-rule="nonzero" fill="#797979" stroke="none" />
</svg>