<?xml version="1.0" encoding="utf-8"?>
<svg version="1.1" xmlns:xlink="http://www.w3.org/1999/xlink" width="12px" height="12px" viewBox="271 668  12 12" xmlns="http://www.w3.org/2000/svg">
  <path d="M 277 668  C 280.36 668  283 670.64  283 674  C 283 677.36  280.36 680  277 680  C 273.64 680  271 677.36  271 674  C 271 670.64  273.64 668  277 668  Z " fill-rule="nonzero" fill="#ffffff" stroke="none" />
  <path d="M 277 668.5  C 280.08 668.5  282.5 670.92  282.5 674  C 282.5 677.08  280.08 679.5  277 679.5  C 273.92 679.5  271.5 677.08  271.5 674  C 271.5 670.92  273.92 668.5  277 668.5  Z " stroke-width="1" stroke="#797979" fill="none" />
  <path d="M 277 677  C 275.32 677  274 675.68  274 674  C 274 672.32  275.32 671  277 671  C 278.68 671  280 672.32  280 674  C 280 675.68  278.68 677  277 677  " fill-rule="nonzero" fill="#797979" stroke="none" />
</svg>