<?xml version="1.0" encoding="utf-8"?>
<svg version="1.1" xmlns:xlink="http://www.w3.org/1999/xlink" width="12px" height="12px" viewBox="371 668  12 12" xmlns="http://www.w3.org/2000/svg">
  <path d="M 377 668  C 380.36 668  383 670.64  383 674  C 383 677.36  380.36 680  377 680  C 373.64 680  371 677.36  371 674  C 371 670.64  373.64 668  377 668  Z " fill-rule="nonzero" fill="#ffffff" stroke="none" />
  <path d="M 377 668.5  C 380.08 668.5  382.5 670.92  382.5 674  C 382.5 677.08  380.08 679.5  377 679.5  C 373.92 679.5  371.5 677.08  371.5 674  C 371.5 670.92  373.92 668.5  377 668.5  Z " stroke-width="1" stroke="#797979" fill="none" />
  <path d="M 377 677  C 375.32 677  374 675.68  374 674  C 374 672.32  375.32 671  377 671  C 378.68 671  380 672.32  380 674  C 380 675.68  378.68 677  377 677  " fill-rule="nonzero" fill="#797979" stroke="none" />
</svg>