<?xml version="1.0" encoding="utf-8"?>
<svg version="1.1" xmlns:xlink="http://www.w3.org/1999/xlink" width="12px" height="12px" viewBox="371 618  12 12" xmlns="http://www.w3.org/2000/svg">
  <path d="M 377 618  C 380.36 618  383 620.64  383 624  C 383 627.36  380.36 630  377 630  C 373.64 630  371 627.36  371 624  C 371 620.64  373.64 618  377 618  Z " fill-rule="nonzero" fill="#ffffff" stroke="none" />
  <path d="M 377 618.5  C 380.08 618.5  382.5 620.92  382.5 624  C 382.5 627.08  380.08 629.5  377 629.5  C 373.92 629.5  371.5 627.08  371.5 624  C 371.5 620.92  373.92 618.5  377 618.5  Z " stroke-width="1" stroke="#797979" fill="none" />
  <path d="M 377 627  C 375.32 627  374 625.68  374 624  C 374 622.32  375.32 621  377 621  C 378.68 621  380 622.32  380 624  C 380 625.68  378.68 627  377 627  " fill-rule="nonzero" fill="#797979" stroke="none" />
</svg>