<?xml version="1.0" encoding="utf-8"?>
<svg version="1.1" xmlns:xlink="http://www.w3.org/1999/xlink" width="12px" height="12px" viewBox="171 620  12 12" xmlns="http://www.w3.org/2000/svg">
  <path d="M 177 620  C 180.36 620  183 622.64  183 626  C 183 629.36  180.36 632  177 632  C 173.64 632  171 629.36  171 626  C 171 622.64  173.64 620  177 620  Z " fill-rule="nonzero" fill="#ffffff" stroke="none" />
  <path d="M 177 620.5  C 180.08 620.5  182.5 622.92  182.5 626  C 182.5 629.08  180.08 631.5  177 631.5  C 173.92 631.5  171.5 629.08  171.5 626  C 171.5 622.92  173.92 620.5  177 620.5  Z " stroke-width="1" stroke="#797979" fill="none" />
  <path d="M 177 629  C 175.32 629  174 627.68  174 626  C 174 624.32  175.32 623  177 623  C 178.68 623  180 624.32  180 626  C 180 627.68  178.68 629  177 629  " fill-rule="nonzero" fill="#797979" stroke="none" />
</svg>