<?xml version="1.0" encoding="utf-8"?>
<svg version="1.1" xmlns:xlink="http://www.w3.org/1999/xlink" width="12px" height="12px" viewBox="271 620  12 12" xmlns="http://www.w3.org/2000/svg">
  <path d="M 277 620  C 280.36 620  283 622.64  283 626  C 283 629.36  280.36 632  277 632  C 273.64 632  271 629.36  271 626  C 271 622.64  273.64 620  277 620  Z " fill-rule="nonzero" fill="#ffffff" stroke="none" />
  <path d="M 277 620.5  C 280.08 620.5  282.5 622.92  282.5 626  C 282.5 629.08  280.08 631.5  277 631.5  C 273.92 631.5  271.5 629.08  271.5 626  C 271.5 622.92  273.92 620.5  277 620.5  Z " stroke-width="1" stroke="#797979" fill="none" />
  <path d="M 277 629  C 275.32 629  274 627.68  274 626  C 274 624.32  275.32 623  277 623  C 278.68 623  280 624.32  280 626  C 280 627.68  278.68 629  277 629  " fill-rule="nonzero" fill="#797979" stroke="none" />
</svg>