<?xml version="1.0" encoding="utf-8"?>
<svg version="1.1" xmlns:xlink="http://www.w3.org/1999/xlink" width="12px" height="12px" viewBox="272 698  12 12" xmlns="http://www.w3.org/2000/svg">
  <path d="M 278 698  C 281.36 698  284 700.64  284 704  C 284 707.36  281.36 710  278 710  C 274.64 710  272 707.36  272 704  C 272 700.64  274.64 698  278 698  Z " fill-rule="nonzero" fill="#ffffff" stroke="none" />
  <path d="M 278 698.5  C 281.08 698.5  283.5 700.92  283.5 704  C 283.5 707.08  281.08 709.5  278 709.5  C 274.92 709.5  272.5 707.08  272.5 704  C 272.5 700.92  274.92 698.5  278 698.5  Z " stroke-width="1" stroke="#797979" fill="none" />
  <path d="M 278 707  C 276.32 707  275 705.68  275 704  C 275 702.32  276.32 701  278 701  C 279.68 701  281 702.32  281 704  C 281 705.68  279.68 707  278 707  " fill-rule="nonzero" fill="#797979" stroke="none" />
</svg>