<?xml version="1.0" encoding="utf-8"?>
<svg version="1.1" xmlns:xlink="http://www.w3.org/1999/xlink" width="12px" height="12px" viewBox="172 740  12 12" xmlns="http://www.w3.org/2000/svg">
  <path d="M 178 740  C 181.36 740  184 742.64  184 746  C 184 749.36  181.36 752  178 752  C 174.64 752  172 749.36  172 746  C 172 742.64  174.64 740  178 740  Z " fill-rule="nonzero" fill="#ffffff" stroke="none" />
  <path d="M 178 740.5  C 181.08 740.5  183.5 742.92  183.5 746  C 183.5 749.08  181.08 751.5  178 751.5  C 174.92 751.5  172.5 749.08  172.5 746  C 172.5 742.92  174.92 740.5  178 740.5  Z " stroke-width="1" stroke="#797979" fill="none" />
  <path d="M 178 749  C 176.32 749  175 747.68  175 746  C 175 744.32  176.32 743  178 743  C 179.68 743  181 744.32  181 746  C 181 747.68  179.68 749  178 749  " fill-rule="nonzero" fill="#797979" stroke="none" />
</svg>