<?xml version="1.0" encoding="utf-8"?>
<svg version="1.1" xmlns:xlink="http://www.w3.org/1999/xlink" width="12px" height="12px" viewBox="172 684  12 12" xmlns="http://www.w3.org/2000/svg">
  <path d="M 178 684  C 181.36 684  184 686.64  184 690  C 184 693.36  181.36 696  178 696  C 174.64 696  172 693.36  172 690  C 172 686.64  174.64 684  178 684  Z " fill-rule="nonzero" fill="#ffffff" stroke="none" />
  <path d="M 178 684.5  C 181.08 684.5  183.5 686.92  183.5 690  C 183.5 693.08  181.08 695.5  178 695.5  C 174.92 695.5  172.5 693.08  172.5 690  C 172.5 686.92  174.92 684.5  178 684.5  Z " stroke-width="1" stroke="#797979" fill="none" />
  <path d="M 178 693  C 176.32 693  175 691.68  175 690  C 175 688.32  176.32 687  178 687  C 179.68 687  181 688.32  181 690  C 181 691.68  179.68 693  178 693  " fill-rule="nonzero" fill="#797979" stroke="none" />
</svg>