<?xml version="1.0" encoding="utf-8"?>
<svg version="1.1" xmlns:xlink="http://www.w3.org/1999/xlink" width="12px" height="12px" viewBox="172 636  12 12" xmlns="http://www.w3.org/2000/svg">
  <path d="M 178 636  C 181.36 636  184 638.64  184 642  C 184 645.36  181.36 648  178 648  C 174.64 648  172 645.36  172 642  C 172 638.64  174.64 636  178 636  Z " fill-rule="nonzero" fill="#ffffff" stroke="none" />
  <path d="M 178 636.5  C 181.08 636.5  183.5 638.92  183.5 642  C 183.5 645.08  181.08 647.5  178 647.5  C 174.92 647.5  172.5 645.08  172.5 642  C 172.5 638.92  174.92 636.5  178 636.5  Z " stroke-width="1" stroke="#797979" fill="none" />
  <path d="M 178 645  C 176.32 645  175 643.68  175 642  C 175 640.32  176.32 639  178 639  C 179.68 639  181 640.32  181 642  C 181 643.68  179.68 645  178 645  " fill-rule="nonzero" fill="#797979" stroke="none" />
</svg>