<?xml version="1.0" encoding="utf-8"?>
<svg version="1.1" xmlns:xlink="http://www.w3.org/1999/xlink" width="12px" height="12px" viewBox="271 710  12 12" xmlns="http://www.w3.org/2000/svg">
  <path d="M 277 710  C 280.36 710  283 712.64  283 716  C 283 719.36  280.36 722  277 722  C 273.64 722  271 719.36  271 716  C 271 712.64  273.64 710  277 710  Z " fill-rule="nonzero" fill="#ffffff" stroke="none" />
  <path d="M 277 710.5  C 280.08 710.5  282.5 712.92  282.5 716  C 282.5 719.08  280.08 721.5  277 721.5  C 273.92 721.5  271.5 719.08  271.5 716  C 271.5 712.92  273.92 710.5  277 710.5  Z " stroke-width="1" stroke="#797979" fill="none" />
  <path d="M 277 719  C 275.32 719  274 717.68  274 716  C 274 714.32  275.32 713  277 713  C 278.68 713  280 714.32  280 716  C 280 717.68  278.68 719  277 719  " fill-rule="nonzero" fill="#797979" stroke="none" />
</svg>