<?xml version="1.0" encoding="utf-8"?>
<svg version="1.1" xmlns:xlink="http://www.w3.org/1999/xlink" width="12px" height="12px" viewBox="171 616  12 12" xmlns="http://www.w3.org/2000/svg">
  <path d="M 177 616  C 180.36 616  183 618.64  183 622  C 183 625.36  180.36 628  177 628  C 173.64 628  171 625.36  171 622  C 171 618.64  173.64 616  177 616  Z " fill-rule="nonzero" fill="#ffffff" stroke="none" />
  <path d="M 177 616.5  C 180.08 616.5  182.5 618.92  182.5 622  C 182.5 625.08  180.08 627.5  177 627.5  C 173.92 627.5  171.5 625.08  171.5 622  C 171.5 618.92  173.92 616.5  177 616.5  Z " stroke-width="1" stroke="#797979" fill="none" />
  <path d="M 177 625  C 175.32 625  174 623.68  174 622  C 174 620.32  175.32 619  177 619  C 178.68 619  180 620.32  180 622  C 180 623.68  178.68 625  177 625  " fill-rule="nonzero" fill="#797979" stroke="none" />
</svg>