<?xml version="1.0" encoding="utf-8"?>
<svg version="1.1" xmlns:xlink="http://www.w3.org/1999/xlink" width="12px" height="12px" viewBox="271 616  12 12" xmlns="http://www.w3.org/2000/svg">
  <path d="M 277 616  C 280.36 616  283 618.64  283 622  C 283 625.36  280.36 628  277 628  C 273.64 628  271 625.36  271 622  C 271 618.64  273.64 616  277 616  Z " fill-rule="nonzero" fill="#ffffff" stroke="none" />
  <path d="M 277 616.5  C 280.08 616.5  282.5 618.92  282.5 622  C 282.5 625.08  280.08 627.5  277 627.5  C 273.92 627.5  271.5 625.08  271.5 622  C 271.5 618.92  273.92 616.5  277 616.5  Z " stroke-width="1" stroke="#797979" fill="none" />
  <path d="M 277 625  C 275.32 625  274 623.68  274 622  C 274 620.32  275.32 619  277 619  C 278.68 619  280 620.32  280 622  C 280 623.68  278.68 625  277 625  " fill-rule="nonzero" fill="#797979" stroke="none" />
</svg>