<?xml version="1.0" encoding="utf-8"?>
<svg version="1.1" xmlns:xlink="http://www.w3.org/1999/xlink" width="12px" height="12px" viewBox="172 687  12 12" xmlns="http://www.w3.org/2000/svg">
  <path d="M 178 687  C 181.36 687  184 689.64  184 693  C 184 696.36  181.36 699  178 699  C 174.64 699  172 696.36  172 693  C 172 689.64  174.64 687  178 687  Z " fill-rule="nonzero" fill="#ffffff" stroke="none" />
  <path d="M 178 687.5  C 181.08 687.5  183.5 689.92  183.5 693  C 183.5 696.08  181.08 698.5  178 698.5  C 174.92 698.5  172.5 696.08  172.5 693  C 172.5 689.92  174.92 687.5  178 687.5  Z " stroke-width="1" stroke="#797979" fill="none" />
  <path d="M 178 696  C 176.32 696  175 694.68  175 693  C 175 691.32  176.32 690  178 690  C 179.68 690  181 691.32  181 693  C 181 694.68  179.68 696  178 696  " fill-rule="nonzero" fill="#797979" stroke="none" />
</svg>