<?xml version="1.0" encoding="utf-8"?>
<svg version="1.1" xmlns:xlink="http://www.w3.org/1999/xlink" width="12px" height="12px" viewBox="372 687  12 12" xmlns="http://www.w3.org/2000/svg">
  <path d="M 378 687  C 381.36 687  384 689.64  384 693  C 384 696.36  381.36 699  378 699  C 374.64 699  372 696.36  372 693  C 372 689.64  374.64 687  378 687  Z " fill-rule="nonzero" fill="#ffffff" stroke="none" />
  <path d="M 378 687.5  C 381.08 687.5  383.5 689.92  383.5 693  C 383.5 696.08  381.08 698.5  378 698.5  C 374.92 698.5  372.5 696.08  372.5 693  C 372.5 689.92  374.92 687.5  378 687.5  Z " stroke-width="1" stroke="#797979" fill="none" />
  <path d="M 378 696  C 376.32 696  375 694.68  375 693  C 375 691.32  376.32 690  378 690  C 379.68 690  381 691.32  381 693  C 381 694.68  379.68 696  378 696  " fill-rule="nonzero" fill="#797979" stroke="none" />
</svg>